# xmcd
#
# Track frame offsets:
#	150
#	33145
#	60375
#	98607
#	122567
#	148340
#	178677
#	208152
#	233857
#	262700
#
# Disc length: 3795 seconds
# Revision: 0
# Processed by: cddbd v1.5.2PL0 Copyright (c) Steve Scherf et al.
# Submitted via: dBpowerAMP V12.0
#
DISCID=820ed10a
DTITLE=Eric Clapton - Roomful Of Blues, Disc 1
DYEAR=1900
DGENRE=
TTITLE0=Crossroads
TTITLE1=White Room
TTITLE2=I Shot The Sheriff
TTITLE3=Bellbottom Blues
TTITLE4=Lay Down Sally
TTITLE5=Wonderful Tonight
TTITLE6=Wanna Make Love To You
TTITLE7=After Midnight
TTITLE8=Can't Find My Way Home
TTITLE9=Forever Man
EXTD=
EXTT0=
EXTT1=
EXTT2=
EXTT3=
EXTT4=
EXTT5=
EXTT6=
EXTT7=
EXTT8=
EXTT9=
PLAYORDER=
